<?xml version="1.0" standalone="no"?>
<!DOCTYPE svg PUBLIC "-//W3C//DTD SVG 20010904//EN"
 "http://www.w3.org/TR/2001/REC-SVG-20010904/DTD/svg10.dtd">
<svg version="1.0" xmlns="http://www.w3.org/2000/svg"
 width="500.000000pt" height="500.000000pt" viewBox="0 0 500.000000 500.000000"
 preserveAspectRatio="xMidYMid meet">
<metadata>
Created by potrace 1.11, written by Peter Selinger 2001-2013
</metadata>
<g transform="translate(0.000000,500.000000) scale(0.100000,-0.100000)"
fill="#000000" stroke="none">
<path d="M2319 4776 c-2 -2 -29 -6 -59 -9 -58 -7 -99 -13 -140 -22 -14 -3 -37
-7 -52 -10 -36 -7 -78 -23 -78 -31 0 -3 19 -3 43 1 23 4 51 9 62 11 11 2 52 6
90 8 39 3 104 9 145 13 106 11 460 9 553 -3 43 -6 80 -7 82 -4 2 4 -1 7 -8 7
-14 1 -141 22 -177 29 -28 6 -455 15 -461 10z"/>
<path d="M2385 4722 c-11 -2 -25 -8 -31 -13 -7 -5 -63 -12 -125 -14 -210 -10
-220 -11 -424 -82 -71 -24 -143 -49 -160 -54 -16 -5 -39 -13 -50 -18 -11 -5
-52 -20 -91 -35 -113 -42 -292 -137 -389 -206 -49 -35 -132 -106 -184 -157
-52 -51 -98 -93 -101 -93 -7 0 -63 -59 -132 -137 -40 -47 -150 -196 -179 -245
-75 -123 -173 -344 -167 -375 2 -11 37 48 87 147 127 252 179 332 279 428 45
42 68 57 40 25 -40 -46 -158 -224 -203 -305 -37 -68 -49 -114 -16 -63 81 125
84 83 4 -64 -45 -84 -74 -127 -91 -134 -17 -8 -36 -35 -57 -82 -33 -71 -81
-197 -90 -238 -2 -12 -11 -51 -19 -87 -14 -63 -18 -85 -32 -200 -9 -71 -11
-407 -3 -485 3 -33 3 -64 -1 -68 -4 -4 -7 -2 -7 5 -1 32 -15 138 -25 187 -16
87 -18 101 -18 190 0 46 -3 81 -7 78 -10 -11 -12 -312 -3 -395 31 -265 127
-642 198 -774 30 -57 49 -64 26 -11 -61 139 -138 365 -154 453 -15 77 -20 199
-9 205 5 4 9 -6 10 -22 2 -65 24 -177 56 -280 43 -141 56 -106 18 47 -26 108
-41 178 -50 250 -4 24 -9 48 -11 52 -3 5 -1 8 4 8 10 0 18 -35 28 -108 2 -20
7 -45 10 -54 2 -9 7 -25 9 -36 7 -39 47 -207 53 -222 3 -8 6 -19 7 -25 17 -72
103 -275 116 -275 5 0 8 -3 8 -7 -3 -20 2 -34 11 -28 6 3 10 2 10 -4 0 -6 13
-33 30 -61 16 -27 25 -50 20 -50 -11 0 38 -92 68 -128 l24 -27 -22 38 c-33 56
-18 45 25 -20 21 -31 69 -97 108 -147 39 -49 70 -96 70 -104 0 -17 214 -235
247 -252 14 -7 -18 29 -70 78 -52 50 -92 91 -88 92 4 0 13 -6 20 -13 31 -28
96 -84 132 -112 21 -16 44 -34 50 -40 72 -64 255 -180 381 -241 204 -98 442
-177 595 -198 25 -3 56 -8 70 -11 127 -27 517 -27 680 1 173 29 365 85 516
150 56 23 114 46 130 50 34 9 180 94 249 147 380 287 598 539 769 892 98 203
177 458 201 655 4 30 9 69 11 85 2 17 6 102 8 190 3 88 8 183 13 210 10 61 10
308 1 390 -14 124 -47 273 -84 383 -34 103 -170 341 -273 480 -65 87 -271 302
-290 302 -6 0 6 -17 27 -38 35 -35 119 -134 150 -177 8 -11 -54 50 -139 137
-85 86 -161 158 -170 161 -9 3 -86 52 -171 110 -129 86 -300 182 -393 219
-183 72 -287 104 -430 133 -66 13 -154 27 -195 30 -86 8 -385 13 -415 7z
m-2102 -2532 c3 -11 1 -20 -4 -20 -5 0 -9 9 -9 20 0 11 2 20 4 20 2 0 6 -9 9
-20z m-23 -50 c0 -5 -2 -10 -4 -10 -3 0 -8 5 -11 10 -3 6 -1 10 4 10 6 0 11
-4 11 -10z"/>
<path d="M1690 4617 c-69 -24 -138 -51 -155 -61 l-30 -17 33 5 c79 13 333 116
287 116 -6 0 -66 -19 -135 -43z"/>
<path d="M459 1388 c21 -54 78 -170 124 -248 67 -113 77 -128 77 -110 0 9 -43
94 -95 189 -52 96 -95 178 -95 183 0 4 -4 8 -10 8 -6 0 -6 -9 -1 -22z"/>
<path d="M1180 540 c0 -19 40 -51 93 -74 31 -14 57 -23 57 -21 0 2 -34 26 -75
53 -41 28 -75 46 -75 42z"/>
<path d="M1330 487 c0 -2 28 -23 63 -47 40 -27 54 -34 39 -18 -21 23 -102 74
-102 65z"/>
<path d="M1580 295 c0 -8 73 -42 105 -49 21 -4 25 -3 15 3 -24 14 -120 51
-120 46z"/>
</g>
</svg>
