<?xml version="1.0" standalone="no"?>
<!DOCTYPE svg PUBLIC "-//W3C//DTD SVG 20010904//EN"
 "http://www.w3.org/TR/2001/REC-SVG-20010904/DTD/svg10.dtd">
<svg version="1.0" xmlns="http://www.w3.org/2000/svg"
 width="500.000000pt" height="500.000000pt" viewBox="0 0 500.000000 500.000000"
 preserveAspectRatio="xMidYMid meet">
<metadata>
Created by potrace 1.11, written by Peter Selinger 2001-2013
</metadata>
<g transform="translate(0.000000,500.000000) scale(0.100000,-0.100000)"
fill="#000000" stroke="none">
<path d="M2427 3914 c-1 -1 -27 -4 -57 -7 -92 -10 -134 -17 -144 -27 -4 -4
-16 -6 -25 -3 -13 4 -14 3 -1 -5 8 -6 18 -8 23 -5 11 7 78 14 154 16 29 1 53
5 53 8 0 8 33 5 48 -5 6 -4 12 -3 12 2 0 6 42 9 105 7 58 -2 103 0 100 4 -2 4
-26 9 -52 10 -62 3 -214 6 -216 5z"/>
<path d="M2710 3892 c0 -5 7 -9 15 -9 8 0 15 4 15 9 0 4 -7 8 -15 8 -8 0 -15
-4 -15 -8z"/>
<path d="M2440 3878 c-14 -5 -50 -11 -80 -14 -183 -14 -179 -13 -257 -44 -14
-6 -25 -5 -28 0 -4 6 -1 10 6 10 7 0 10 2 7 5 -5 6 -108 -23 -123 -35 -5 -4
-23 -11 -40 -15 -16 -4 -24 -10 -17 -12 16 -6 16 -23 -1 -23 -21 0 -237 -111
-237 -121 0 -5 -6 -9 -13 -9 -19 0 -230 -197 -277 -260 -14 -18 -32 -40 -40
-49 -21 -24 -77 -115 -85 -140 -3 -12 -11 -21 -17 -21 -6 0 -9 -2 -6 -6 3 -3
-5 -26 -18 -51 -13 -26 -21 -50 -18 -55 3 -4 0 -8 -5 -8 -6 0 -11 -10 -11 -22
1 -21 2 -20 17 7 10 17 16 33 15 38 -1 4 3 7 9 7 5 0 8 4 4 9 -3 5 0 13 5 16
12 7 34 55 32 68 -1 4 2 7 7 7 5 0 13 10 17 22 7 24 36 69 68 106 11 12 17 22
13 22 -3 0 5 12 20 26 38 38 37 24 -3 -35 -48 -71 -102 -173 -75 -143 11 12
22 18 25 13 3 -5 -1 -14 -9 -21 -8 -7 -15 -19 -15 -26 0 -8 -4 -14 -10 -14 -5
0 -9 -3 -8 -7 7 -20 -27 -74 -48 -79 -13 -3 -22 -9 -21 -13 1 -4 -8 -29 -20
-57 -31 -72 -37 -87 -52 -149 -24 -99 -34 -186 -34 -327 -1 -60 -5 -108 -10
-108 -5 0 -6 7 -3 16 3 9 3 21 -1 27 -9 14 -9 19 -12 72 -1 23 -5 35 -9 28
-12 -19 -4 -172 14 -258 4 -16 6 -38 6 -47 0 -10 4 -20 9 -23 5 -4 6 -11 3
-17 -4 -7 -2 -8 5 -4 6 4 9 12 5 17 -10 17 -12 59 -3 59 5 0 10 -9 10 -20 2
-28 6 -60 9 -62 1 -2 3 -12 5 -22 2 -11 7 -31 11 -45 11 -39 11 -40 13 -51 0
-5 9 -10 19 -10 13 0 21 -13 29 -42 18 -66 66 -164 88 -180 6 -4 6 -8 2 -8 -5
0 -1 -7 7 -16 9 -8 16 -21 16 -29 0 -20 26 -66 33 -58 4 3 7 2 7 -3 0 -6 8
-19 18 -30 39 -44 113 -144 106 -144 -4 0 3 -8 14 -19 12 -10 19 -21 15 -25
-3 -3 0 -6 8 -6 8 0 22 -12 33 -28 10 -15 33 -38 50 -52 28 -21 29 -22 12 -2
-27 31 -7 27 29 -5 16 -16 37 -32 46 -38 36 -22 74 -49 84 -60 10 -10 165 -87
175 -86 3 0 15 -7 28 -15 12 -8 22 -12 22 -8 0 3 11 -1 25 -10 13 -9 33 -16
43 -16 10 0 23 -5 30 -12 7 -7 12 -9 12 -6 0 4 15 2 33 -4 58 -18 157 -37 223
-42 16 -1 34 -4 39 -7 9 -5 220 -4 220 1 0 1 16 3 35 5 19 2 35 4 35 5 0 1 11
3 25 5 38 4 90 15 135 27 22 5 45 11 50 12 6 1 15 5 21 8 6 4 21 9 35 12 13 2
66 23 117 44 50 22 92 38 92 36 0 -3 6 0 13 5 40 34 109 81 116 81 5 0 11 3
13 8 2 4 23 23 48 42 49 38 215 200 204 200 -3 0 3 8 14 18 26 22 152 212 152
229 0 7 5 13 10 13 6 0 9 3 8 8 -1 4 8 27 19 52 12 25 22 50 23 55 1 6 5 15
10 20 4 6 11 26 15 45 4 19 10 40 13 45 4 6 7 15 9 20 1 6 9 37 18 70 14 55
23 112 28 190 1 17 6 36 10 43 5 6 4 12 -1 12 -5 0 -9 7 -9 15 0 8 4 15 8 15
8 0 4 33 -6 50 -3 6 -3 10 2 10 13 0 20 267 8 335 -4 22 -8 54 -10 72 -2 18
-8 40 -13 50 -5 10 -8 26 -7 35 2 10 -1 20 -6 24 -5 3 -9 13 -9 22 0 29 -115
246 -150 283 -8 8 -22 26 -30 39 -8 13 -23 32 -32 42 -10 10 -18 21 -19 26 0
4 -20 23 -43 42 -24 19 -41 38 -39 43 2 4 -1 7 -6 7 -19 0 -12 -18 19 -43 17
-14 30 -31 30 -37 0 -5 -17 8 -37 31 -71 76 -108 111 -138 126 -16 9 -35 22
-43 29 -7 8 -20 14 -28 14 -8 0 -14 4 -14 9 0 11 -102 75 -170 107 -19 9 -47
22 -62 30 -15 8 -29 14 -30 14 -2 -1 -16 4 -33 10 -16 6 -32 12 -35 12 -3 0
-12 4 -21 8 -51 28 -232 63 -331 64 -27 1 -48 4 -48 7 0 7 -100 3 -107 -5 -4
-3 -11 -2 -17 3 -6 5 -22 5 -36 -1z m-370 -67 c0 -4 -7 -8 -15 -9 -8 -1 -22
-3 -30 -4 -8 -1 -15 -5 -15 -10 0 -4 -12 -8 -27 -7 -16 0 -21 3 -13 6 8 2 22
7 30 10 8 4 18 5 23 5 4 -1 7 2 7 6 0 4 9 8 20 9 11 1 20 -2 20 -6z m-114 -43
c3 -4 -1 -5 -10 -4 -8 1 -18 5 -22 8 -3 4 1 5 10 4 8 -1 18 -5 22 -8z m-826
-1508 c0 -5 -5 -10 -11 -10 -5 0 -7 5 -4 10 3 6 8 10 11 10 2 0 4 -4 4 -10z
m30 -35 c0 -5 -5 -3 -10 5 -5 8 -10 20 -10 25 0 6 5 3 10 -5 5 -8 10 -19 10
-25z m6 -51 c3 -16 2 -26 -1 -23 -3 4 -8 19 -11 35 -3 16 -2 26 1 23 3 -4 8
-19 11 -35z m11 -56 c-3 -8 -6 -5 -6 6 -1 11 2 17 5 13 3 -3 4 -12 1 -19z m18
-58 c2 -12 3 -21 1 -19 -3 2 -5 9 -6 14 -1 6 -7 19 -12 30 -8 15 -8 17 1 9 6
-6 13 -21 16 -34z m415 -641 c0 -6 -4 -7 -10 -4 -5 3 -10 11 -10 16 0 6 5 7
10 4 6 -3 10 -11 10 -16z"/>
<path d="M1075 2551 c-3 -5 -2 -12 3 -15 5 -3 9 1 9 9 0 17 -3 19 -12 6z"/>
<path d="M1115 2140 c3 -5 8 -10 11 -10 2 0 4 5 4 10 0 6 -5 10 -11 10 -5 0
-7 -4 -4 -10z"/>
<path d="M1135 2060 c3 -5 8 -10 11 -10 2 0 4 5 4 10 0 6 -5 10 -11 10 -5 0
-7 -4 -4 -10z"/>
<path d="M1150 2020 c6 -11 13 -20 16 -20 2 0 0 9 -6 20 -6 11 -13 20 -16 20
-2 0 0 -9 6 -20z"/>
<path d="M1167 1968 c3 -13 6 -31 6 -40 1 -10 5 -18 9 -18 4 0 8 -9 8 -20 0
-11 5 -20 10 -20 6 0 10 -7 10 -15 0 -8 4 -15 9 -15 10 0 -9 61 -22 71 -5 3
-8 9 -7 13 2 9 -18 66 -24 66 -3 0 -2 -10 1 -22z"/>
<path d="M1260 1795 c7 -8 9 -15 4 -15 -5 0 -4 -4 1 -8 6 -4 23 -33 39 -64 15
-32 32 -58 37 -58 6 0 8 -4 5 -9 -3 -5 1 -14 9 -21 13 -11 13 -8 4 19 -6 17
-14 31 -19 31 -8 0 -23 38 -21 53 1 4 -3 7 -7 7 -5 0 -17 18 -27 40 -10 22
-22 40 -28 40 -5 0 -4 -7 3 -15z"/>
<path d="M1699 1293 c6 -12 17 -25 23 -29 17 -11 48 -12 42 -2 -3 4 -10 8 -16
8 -7 0 -23 10 -36 23 l-25 22 12 -22z"/>
<path d="M1830 1229 c0 -5 5 -7 10 -4 6 3 10 8 10 11 0 2 -4 4 -10 4 -5 0 -10
-5 -10 -11z"/>
<path d="M1960 1146 c0 -2 8 -10 18 -17 15 -13 16 -12 3 4 -13 16 -21 21 -21
13z"/>
</g>
</svg>
